<svg width="53" height="48" viewBox="0 0 53 48" fill="none" xmlns="http://www.w3.org/2000/svg">
<path d="M6.29925 10.5575L6.27105 10.5566C5.19283 10.5218 4.17041 10.069 3.41999 9.29403C2.66957 8.51902 2.25 7.48253 2.25 6.40375C2.25 5.32497 2.66957 4.28848 3.41999 3.51347C4.17041 2.73845 5.19283 2.28569 6.27105 2.25091L6.29926 2.25H6.32747H9.20497C12.2805 2.25 14.94 4.38484 15.6081 7.38455L15.6083 7.3856L18.7406 21.4895C18.7407 21.4898 18.7407 21.49 18.7408 21.4903C18.7408 21.4904 18.7408 21.4905 18.7408 21.4906C19.0531 22.8903 20.2933 23.885 21.7275 23.885H39.141L41.8713 12.96H20.75H20.7101L20.6702 12.9582C19.6021 12.9094 18.5939 12.4508 17.8554 11.6778L19.1207 10.4689L17.8554 11.6778C17.1168 10.9047 16.7046 9.87669 16.7046 8.8075C16.7046 7.73831 17.1168 6.71028 17.8554 5.93722C18.5939 5.16415 19.6021 4.70556 20.6702 4.65682L20.7101 4.655H20.75L44.112 4.655C44.1121 4.655 44.1123 4.655 44.1125 4.655C45.1092 4.65478 46.0928 4.88177 46.9886 5.31871C47.8846 5.75572 48.6691 6.39126 49.2826 7.17701C49.8961 7.96275 50.3223 8.87802 50.529 9.85325C50.7356 10.8283 50.7172 11.8376 50.4752 12.8044L6.29925 10.5575ZM6.29925 10.5575H6.32747M6.29925 10.5575H6.32747M6.32747 10.5575H7.80122L10.6316 23.292C11.1924 25.8167 12.5976 28.0746 14.615 29.6929C16.6324 31.311 19.1413 32.1928 21.7275 32.1925M6.32747 10.5575L21.7275 32.1925M21.7277 32.1925H40.5072H21.7277ZM21.7277 32.1925C21.7276 32.1925 21.7275 32.1925 21.7275 32.1925M21.7277 32.1925H21.7275M46.8703 27.2241L50.4751 12.805L40.5075 32.1925C41.9702 32.1927 43.391 31.7038 44.5439 30.8036C45.6968 29.9034 46.5157 28.6435 46.8702 27.2244C46.8703 27.2243 46.8703 27.2242 46.8703 27.2241ZM16.6495 43.773L17.8869 42.5355L16.6495 43.773C17.9154 45.0388 19.6323 45.75 21.4225 45.75C23.2127 45.75 24.9296 45.0388 26.1954 43.773C27.4613 42.5071 28.1725 40.7902 28.1725 39C28.1725 37.2098 27.4613 35.4929 26.1954 34.227C24.9296 32.9612 23.2127 32.25 21.4225 32.25C19.6323 32.25 17.9154 32.9612 16.6495 34.227C15.3836 35.4929 14.6725 37.2098 14.6725 39C14.6725 40.7902 15.3836 42.5071 16.6495 43.773ZM34.1495 43.773C35.4154 45.0388 37.1323 45.75 38.9225 45.75C40.7127 45.75 42.4296 45.0388 43.6954 43.773C44.9613 42.5071 45.6725 40.7902 45.6725 39C45.6725 37.2098 44.9613 35.4929 43.6954 34.227C42.4296 32.9612 40.7127 32.25 38.9225 32.25C37.1323 32.25 35.4154 32.9612 34.1495 34.227C32.8836 35.4929 32.1725 37.2098 32.1725 39C32.1725 40.7902 32.8836 42.5071 34.1495 43.773Z" stroke="#F5F5F5" stroke-width="3.5"/>
</svg>
