<svg width="28" height="24" viewBox="0 0 28 24" fill="none" xmlns="http://www.w3.org/2000/svg">
<path d="M18.2909 14.6781C17.9413 15.1828 17.2518 15.5987 16.6013 15.5775C16.0024 15.558 14.0754 15.3439 12.0174 13.5154C9.97331 11.6974 9.76769 10.0362 9.7491 9.58589L18.2909 14.6781ZM18.2909 14.6781C17.8338 14.2238 17.2413 13.8507 16.5364 13.4175L15.9871 14.1621C15.7966 14.4228 15.5232 14.5837 15.2421 14.6459C14.9592 14.7086 14.6572 14.6749 14.3903 14.5415L14.3838 14.5383L14.3838 14.5382C13.8902 14.2871 13.1386 13.846 12.5687 13.3394C11.9948 12.8293 11.5172 12.1785 11.2492 11.7442L11.2435 11.7349L11.2436 11.7349C11.0793 11.4621 11.0255 11.1303 11.1084 10.8102C11.1896 10.4966 11.3869 10.2486 11.6277 10.0914L12.3369 9.62338C11.8963 9.04724 11.4795 8.51944 10.9312 8.14349C10.6027 8.28146 10.2913 8.51448 10.0682 8.79118C9.82945 9.08744 9.74022 9.36934 9.7491 9.5858L18.2909 14.6781ZM1.64795 12C1.64795 5.81724 7.24627 1 13.8979 1C20.5496 1 26.1479 5.81724 26.1479 12C26.1479 18.1824 20.5503 22.9994 13.8992 23L1.64795 12ZM1.64795 12C1.64795 13.928 2.20113 15.7391 3.1658 17.3087M1.64795 12L3.1658 17.3087M3.1658 17.3087L2.31284 19.8858C2.19219 20.2503 2.18394 20.6406 2.28998 21.0103C2.39565 21.3787 2.60671 21.6998 2.88444 21.9467C3.16137 22.1928 3.49663 22.3588 3.85052 22.439C4.20436 22.5192 4.57469 22.5133 4.92596 22.4215L7.96558 21.6266C9.7822 22.5306 11.8245 23.0023 13.8979 23L3.1658 17.3087Z" fill="black" stroke="#F5F5F5" stroke-width="2"/>
</svg>
