<svg width="26" height="25" viewBox="0 0 26 25" fill="none" xmlns="http://www.w3.org/2000/svg">
<mask id="path-1-outside-1_1_10" maskUnits="userSpaceOnUse" x="0.5" y="0" width="26" height="25" fill="black">
<rect fill="white" x="0.5" width="26" height="25"/>
<path fill-rule="evenodd" clip-rule="evenodd" d="M18.4481 2.52746C14.9087 1.82418 11.2382 1.82418 7.69877 2.52746L7.31739 2.60246C6.32179 2.80032 5.40738 3.23964 4.67575 3.87162C3.94411 4.50361 3.4239 5.3035 3.17289 6.18246C2.2757 9.32499 2.2757 12.6169 3.17289 15.7595C3.41227 16.5977 3.89672 17.3648 4.57716 17.983C5.25759 18.6012 6.1098 19.0484 7.04739 19.2795L7.57052 22.0555C7.58722 22.1436 7.6302 22.2262 7.69498 22.2945C7.75977 22.3629 7.84399 22.4146 7.93887 22.4442C8.03376 22.4738 8.13584 22.4803 8.23449 22.4629C8.33314 22.4455 8.42474 22.405 8.49977 22.3455L11.5721 19.9025C13.8785 20.0276 16.1932 19.8636 18.4481 19.4155L18.8306 19.3405C19.8263 19.1426 20.7407 18.7033 21.4723 18.0713C22.2039 17.4393 22.7241 16.6394 22.9751 15.7605C23.8722 12.6179 23.8722 9.326 22.9751 6.18346C22.7241 5.30438 22.2037 4.50439 21.4718 3.8724C20.74 3.24041 19.8253 2.80116 18.8295 2.60346L18.4481 2.52746ZM8.64827 6.10146C8.43918 6.07441 8.22598 6.11182 8.04414 6.20746H8.02839C7.60652 6.42746 7.22627 6.70446 6.90227 7.03046C6.63227 7.30746 6.48602 7.58746 6.44777 7.85746C6.42527 8.01746 6.44102 8.17946 6.49389 8.33246L6.51414 8.34246C6.81789 9.13546 7.21389 9.89846 7.69764 10.6165C8.3214 11.6249 9.08899 12.5577 9.98139 13.3915L10.0084 13.4255L10.0511 13.4535L10.077 13.4805L10.1085 13.5045C11.0498 14.3001 12.1016 14.9856 13.2383 15.5445C14.5376 16.1735 15.3263 16.4705 15.7999 16.5945V16.6005C15.9383 16.6385 16.0643 16.6555 16.1914 16.6555C16.5948 16.629 16.9765 16.4832 17.2759 16.2415C17.6415 15.9535 17.9509 15.6145 18.1916 15.2375V15.2305C18.4178 14.8505 18.3413 14.4925 18.015 14.2495C17.3597 13.7405 16.6511 13.2884 15.8989 12.8995C15.3949 12.6565 14.883 12.8035 14.676 13.0495L14.2339 13.5455C14.0066 13.7915 13.5949 13.7575 13.5949 13.7575L13.5836 13.7635C10.5113 13.0665 9.69114 10.3015 9.69114 10.3015C9.69114 10.3015 9.65289 9.92546 9.93752 9.73346L10.491 9.33746C10.7565 9.14546 10.941 8.69146 10.6564 8.24346C10.2217 7.57422 9.71414 6.94454 9.14102 6.36346C9.01602 6.2267 8.84072 6.13357 8.64602 6.10046L8.64827 6.10146ZM13.839 4.89946C13.6898 4.89946 13.5468 4.95214 13.4413 5.04591C13.3358 5.13967 13.2765 5.26685 13.2765 5.39946C13.2765 5.53207 13.3358 5.65924 13.4413 5.75301C13.5468 5.84678 13.6898 5.89946 13.839 5.89946C15.2621 5.89946 16.4434 6.31246 17.3783 7.10446C17.8586 7.53746 18.2333 8.05046 18.4785 8.61246C18.7249 9.17546 18.8374 9.77646 18.8081 10.3785C18.805 10.4441 18.8165 10.5097 18.8419 10.5714C18.8673 10.6331 18.9062 10.6898 18.9562 10.7382C19.0572 10.8359 19.1978 10.8939 19.347 10.8995C19.4962 10.905 19.6418 10.8577 19.7517 10.7679C19.8616 10.678 19.9269 10.5531 19.9331 10.4205C19.968 9.67994 19.8298 8.94105 19.527 8.25046C19.223 7.55659 18.762 6.92558 18.1725 6.39646L18.1613 6.38646C17.0014 5.40146 15.5333 4.89946 13.839 4.89946ZM13.8008 6.54346C13.6516 6.54346 13.5085 6.59614 13.403 6.68991C13.2975 6.78367 13.2383 6.91085 13.2383 7.04346C13.2383 7.17607 13.2975 7.30324 13.403 7.39701C13.5085 7.49078 13.6516 7.54346 13.8008 7.54346H13.8199C14.8459 7.60846 15.5929 7.91246 16.116 8.41146C16.6526 8.92546 16.9305 9.56446 16.9091 10.3545C16.9057 10.4871 16.9617 10.6155 17.0647 10.7114C17.1678 10.8073 17.3095 10.8629 17.4587 10.866C17.6079 10.869 17.7523 10.8193 17.8602 10.7276C17.9682 10.636 18.0307 10.5101 18.0341 10.3775C18.0611 9.34046 17.6854 8.44546 16.9406 7.73146V7.72946C16.179 7.00346 15.1339 6.61946 13.8761 6.54446L13.857 6.54246L13.8008 6.54346ZM13.7794 8.21846C13.7041 8.21256 13.6283 8.22019 13.5564 8.24092C13.4845 8.26165 13.4181 8.29504 13.361 8.3391C13.304 8.38316 13.2575 8.43698 13.2244 8.49736C13.1912 8.55773 13.1721 8.62342 13.1682 8.69051C13.1643 8.75759 13.1756 8.82469 13.2015 8.8878C13.2274 8.95091 13.2673 9.00874 13.3189 9.05783C13.3705 9.10692 13.4327 9.14626 13.5017 9.17352C13.5708 9.20077 13.6453 9.21538 13.7209 9.21646C14.1911 9.23846 14.4915 9.36446 14.6805 9.53346C14.8706 9.70346 15.0124 9.97646 15.0383 10.4035C15.0397 10.4706 15.0563 10.5367 15.087 10.598C15.1178 10.6593 15.1622 10.7144 15.2174 10.7602C15.2727 10.8059 15.3377 10.8412 15.4087 10.8641C15.4797 10.887 15.5551 10.897 15.6305 10.8935C15.7059 10.8899 15.7797 10.8729 15.8475 10.8434C15.9154 10.814 15.9759 10.7727 16.0254 10.722C16.0749 10.6713 16.1124 10.6123 16.1357 10.5485C16.159 10.4847 16.1676 10.4173 16.161 10.3505C16.125 9.75046 15.9135 9.22046 15.4804 8.83046C15.045 8.44046 14.4521 8.25046 13.7794 8.21846Z"/>
</mask>
<path fill-rule="evenodd" clip-rule="evenodd" d="M18.4481 2.52746C14.9087 1.82418 11.2382 1.82418 7.69877 2.52746L7.31739 2.60246C6.32179 2.80032 5.40738 3.23964 4.67575 3.87162C3.94411 4.50361 3.4239 5.3035 3.17289 6.18246C2.2757 9.32499 2.2757 12.6169 3.17289 15.7595C3.41227 16.5977 3.89672 17.3648 4.57716 17.983C5.25759 18.6012 6.1098 19.0484 7.04739 19.2795L7.57052 22.0555C7.58722 22.1436 7.6302 22.2262 7.69498 22.2945C7.75977 22.3629 7.84399 22.4146 7.93887 22.4442C8.03376 22.4738 8.13584 22.4803 8.23449 22.4629C8.33314 22.4455 8.42474 22.405 8.49977 22.3455L11.5721 19.9025C13.8785 20.0276 16.1932 19.8636 18.4481 19.4155L18.8306 19.3405C19.8263 19.1426 20.7407 18.7033 21.4723 18.0713C22.2039 17.4393 22.7241 16.6394 22.9751 15.7605C23.8722 12.6179 23.8722 9.326 22.9751 6.18346C22.7241 5.30438 22.2037 4.50439 21.4718 3.8724C20.74 3.24041 19.8253 2.80116 18.8295 2.60346L18.4481 2.52746ZM8.64827 6.10146C8.43918 6.07441 8.22598 6.11182 8.04414 6.20746H8.02839C7.60652 6.42746 7.22627 6.70446 6.90227 7.03046C6.63227 7.30746 6.48602 7.58746 6.44777 7.85746C6.42527 8.01746 6.44102 8.17946 6.49389 8.33246L6.51414 8.34246C6.81789 9.13546 7.21389 9.89846 7.69764 10.6165C8.3214 11.6249 9.08899 12.5577 9.98139 13.3915L10.0084 13.4255L10.0511 13.4535L10.077 13.4805L10.1085 13.5045C11.0498 14.3001 12.1016 14.9856 13.2383 15.5445C14.5376 16.1735 15.3263 16.4705 15.7999 16.5945V16.6005C15.9383 16.6385 16.0643 16.6555 16.1914 16.6555C16.5948 16.629 16.9765 16.4832 17.2759 16.2415C17.6415 15.9535 17.9509 15.6145 18.1916 15.2375V15.2305C18.4178 14.8505 18.3413 14.4925 18.015 14.2495C17.3597 13.7405 16.6511 13.2884 15.8989 12.8995C15.3949 12.6565 14.883 12.8035 14.676 13.0495L14.2339 13.5455C14.0066 13.7915 13.5949 13.7575 13.5949 13.7575L13.5836 13.7635C10.5113 13.0665 9.69114 10.3015 9.69114 10.3015C9.69114 10.3015 9.65289 9.92546 9.93752 9.73346L10.491 9.33746C10.7565 9.14546 10.941 8.69146 10.6564 8.24346C10.2217 7.57422 9.71414 6.94454 9.14102 6.36346C9.01602 6.2267 8.84072 6.13357 8.64602 6.10046L8.64827 6.10146ZM13.839 4.89946C13.6898 4.89946 13.5468 4.95214 13.4413 5.04591C13.3358 5.13967 13.2765 5.26685 13.2765 5.39946C13.2765 5.53207 13.3358 5.65924 13.4413 5.75301C13.5468 5.84678 13.6898 5.89946 13.839 5.89946C15.2621 5.89946 16.4434 6.31246 17.3783 7.10446C17.8586 7.53746 18.2333 8.05046 18.4785 8.61246C18.7249 9.17546 18.8374 9.77646 18.8081 10.3785C18.805 10.4441 18.8165 10.5097 18.8419 10.5714C18.8673 10.6331 18.9062 10.6898 18.9562 10.7382C19.0572 10.8359 19.1978 10.8939 19.347 10.8995C19.4962 10.905 19.6418 10.8577 19.7517 10.7679C19.8616 10.678 19.9269 10.5531 19.9331 10.4205C19.968 9.67994 19.8298 8.94105 19.527 8.25046C19.223 7.55659 18.762 6.92558 18.1725 6.39646L18.1613 6.38646C17.0014 5.40146 15.5333 4.89946 13.839 4.89946ZM13.8008 6.54346C13.6516 6.54346 13.5085 6.59614 13.403 6.68991C13.2975 6.78367 13.2383 6.91085 13.2383 7.04346C13.2383 7.17607 13.2975 7.30324 13.403 7.39701C13.5085 7.49078 13.6516 7.54346 13.8008 7.54346H13.8199C14.8459 7.60846 15.5929 7.91246 16.116 8.41146C16.6526 8.92546 16.9305 9.56446 16.9091 10.3545C16.9057 10.4871 16.9617 10.6155 17.0647 10.7114C17.1678 10.8073 17.3095 10.8629 17.4587 10.866C17.6079 10.869 17.7523 10.8193 17.8602 10.7276C17.9682 10.636 18.0307 10.5101 18.0341 10.3775C18.0611 9.34046 17.6854 8.44546 16.9406 7.73146V7.72946C16.179 7.00346 15.1339 6.61946 13.8761 6.54446L13.857 6.54246L13.8008 6.54346ZM13.7794 8.21846C13.7041 8.21256 13.6283 8.22019 13.5564 8.24092C13.4845 8.26165 13.4181 8.29504 13.361 8.3391C13.304 8.38316 13.2575 8.43698 13.2244 8.49736C13.1912 8.55773 13.1721 8.62342 13.1682 8.69051C13.1643 8.75759 13.1756 8.82469 13.2015 8.8878C13.2274 8.95091 13.2673 9.00874 13.3189 9.05783C13.3705 9.10692 13.4327 9.14626 13.5017 9.17352C13.5708 9.20077 13.6453 9.21538 13.7209 9.21646C14.1911 9.23846 14.4915 9.36446 14.6805 9.53346C14.8706 9.70346 15.0124 9.97646 15.0383 10.4035C15.0397 10.4706 15.0563 10.5367 15.087 10.598C15.1178 10.6593 15.1622 10.7144 15.2174 10.7602C15.2727 10.8059 15.3377 10.8412 15.4087 10.8641C15.4797 10.887 15.5551 10.897 15.6305 10.8935C15.7059 10.8899 15.7797 10.8729 15.8475 10.8434C15.9154 10.814 15.9759 10.7727 16.0254 10.722C16.0749 10.6713 16.1124 10.6123 16.1357 10.5485C16.159 10.4847 16.1676 10.4173 16.161 10.3505C16.125 9.75046 15.9135 9.22046 15.4804 8.83046C15.045 8.44046 14.4521 8.25046 13.7794 8.21846Z" fill="black"/>
<path fill-rule="evenodd" clip-rule="evenodd" d="M18.4481 2.52746C14.9087 1.82418 11.2382 1.82418 7.69877 2.52746L7.31739 2.60246C6.32179 2.80032 5.40738 3.23964 4.67575 3.87162C3.94411 4.50361 3.4239 5.3035 3.17289 6.18246C2.2757 9.32499 2.2757 12.6169 3.17289 15.7595C3.41227 16.5977 3.89672 17.3648 4.57716 17.983C5.25759 18.6012 6.1098 19.0484 7.04739 19.2795L7.57052 22.0555C7.58722 22.1436 7.6302 22.2262 7.69498 22.2945C7.75977 22.3629 7.84399 22.4146 7.93887 22.4442C8.03376 22.4738 8.13584 22.4803 8.23449 22.4629C8.33314 22.4455 8.42474 22.405 8.49977 22.3455L11.5721 19.9025C13.8785 20.0276 16.1932 19.8636 18.4481 19.4155L18.8306 19.3405C19.8263 19.1426 20.7407 18.7033 21.4723 18.0713C22.2039 17.4393 22.7241 16.6394 22.9751 15.7605C23.8722 12.6179 23.8722 9.326 22.9751 6.18346C22.7241 5.30438 22.2037 4.50439 21.4718 3.8724C20.74 3.24041 19.8253 2.80116 18.8295 2.60346L18.4481 2.52746ZM8.64827 6.10146C8.43918 6.07441 8.22598 6.11182 8.04414 6.20746H8.02839C7.60652 6.42746 7.22627 6.70446 6.90227 7.03046C6.63227 7.30746 6.48602 7.58746 6.44777 7.85746C6.42527 8.01746 6.44102 8.17946 6.49389 8.33246L6.51414 8.34246C6.81789 9.13546 7.21389 9.89846 7.69764 10.6165C8.3214 11.6249 9.08899 12.5577 9.98139 13.3915L10.0084 13.4255L10.0511 13.4535L10.077 13.4805L10.1085 13.5045C11.0498 14.3001 12.1016 14.9856 13.2383 15.5445C14.5376 16.1735 15.3263 16.4705 15.7999 16.5945V16.6005C15.9383 16.6385 16.0643 16.6555 16.1914 16.6555C16.5948 16.629 16.9765 16.4832 17.2759 16.2415C17.6415 15.9535 17.9509 15.6145 18.1916 15.2375V15.2305C18.4178 14.8505 18.3413 14.4925 18.015 14.2495C17.3597 13.7405 16.6511 13.2884 15.8989 12.8995C15.3949 12.6565 14.883 12.8035 14.676 13.0495L14.2339 13.5455C14.0066 13.7915 13.5949 13.7575 13.5949 13.7575L13.5836 13.7635C10.5113 13.0665 9.69114 10.3015 9.69114 10.3015C9.69114 10.3015 9.65289 9.92546 9.93752 9.73346L10.491 9.33746C10.7565 9.14546 10.941 8.69146 10.6564 8.24346C10.2217 7.57422 9.71414 6.94454 9.14102 6.36346C9.01602 6.2267 8.84072 6.13357 8.64602 6.10046L8.64827 6.10146ZM13.839 4.89946C13.6898 4.89946 13.5468 4.95214 13.4413 5.04591C13.3358 5.13967 13.2765 5.26685 13.2765 5.39946C13.2765 5.53207 13.3358 5.65924 13.4413 5.75301C13.5468 5.84678 13.6898 5.89946 13.839 5.89946C15.2621 5.89946 16.4434 6.31246 17.3783 7.10446C17.8586 7.53746 18.2333 8.05046 18.4785 8.61246C18.7249 9.17546 18.8374 9.77646 18.8081 10.3785C18.805 10.4441 18.8165 10.5097 18.8419 10.5714C18.8673 10.6331 18.9062 10.6898 18.9562 10.7382C19.0572 10.8359 19.1978 10.8939 19.347 10.8995C19.4962 10.905 19.6418 10.8577 19.7517 10.7679C19.8616 10.678 19.9269 10.5531 19.9331 10.4205C19.968 9.67994 19.8298 8.94105 19.527 8.25046C19.223 7.55659 18.762 6.92558 18.1725 6.39646L18.1613 6.38646C17.0014 5.40146 15.5333 4.89946 13.839 4.89946ZM13.8008 6.54346C13.6516 6.54346 13.5085 6.59614 13.403 6.68991C13.2975 6.78367 13.2383 6.91085 13.2383 7.04346C13.2383 7.17607 13.2975 7.30324 13.403 7.39701C13.5085 7.49078 13.6516 7.54346 13.8008 7.54346H13.8199C14.8459 7.60846 15.5929 7.91246 16.116 8.41146C16.6526 8.92546 16.9305 9.56446 16.9091 10.3545C16.9057 10.4871 16.9617 10.6155 17.0647 10.7114C17.1678 10.8073 17.3095 10.8629 17.4587 10.866C17.6079 10.869 17.7523 10.8193 17.8602 10.7276C17.9682 10.636 18.0307 10.5101 18.0341 10.3775C18.0611 9.34046 17.6854 8.44546 16.9406 7.73146V7.72946C16.179 7.00346 15.1339 6.61946 13.8761 6.54446L13.857 6.54246L13.8008 6.54346ZM13.7794 8.21846C13.7041 8.21256 13.6283 8.22019 13.5564 8.24092C13.4845 8.26165 13.4181 8.29504 13.361 8.3391C13.304 8.38316 13.2575 8.43698 13.2244 8.49736C13.1912 8.55773 13.1721 8.62342 13.1682 8.69051C13.1643 8.75759 13.1756 8.82469 13.2015 8.8878C13.2274 8.95091 13.2673 9.00874 13.3189 9.05783C13.3705 9.10692 13.4327 9.14626 13.5017 9.17352C13.5708 9.20077 13.6453 9.21538 13.7209 9.21646C14.1911 9.23846 14.4915 9.36446 14.6805 9.53346C14.8706 9.70346 15.0124 9.97646 15.0383 10.4035C15.0397 10.4706 15.0563 10.5367 15.087 10.598C15.1178 10.6593 15.1622 10.7144 15.2174 10.7602C15.2727 10.8059 15.3377 10.8412 15.4087 10.8641C15.4797 10.887 15.5551 10.897 15.6305 10.8935C15.7059 10.8899 15.7797 10.8729 15.8475 10.8434C15.9154 10.814 15.9759 10.7727 16.0254 10.722C16.0749 10.6713 16.1124 10.6123 16.1357 10.5485C16.159 10.4847 16.1676 10.4173 16.161 10.3505C16.125 9.75046 15.9135 9.22046 15.4804 8.83046C15.045 8.44046 14.4521 8.25046 13.7794 8.21846Z" stroke="#F5F5F5" stroke-width="4" mask="url(#path-1-outside-1_1_10)"/>
</svg>
