<svg width="25" height="25" viewBox="0 0 25 25" fill="none" xmlns="http://www.w3.org/2000/svg">
<path d="M9.97599 6.57156e-07C8.41462 0.000835201 6.87522 0.367956 5.48152 1.07186C4.08782 1.77576 2.87869 2.7968 1.95132 4.05293C1.02395 5.30905 0.404195 6.76523 0.141876 8.3044C-0.120444 9.84358 -0.0180138 11.4228 0.440933 12.9152C0.899881 14.4076 1.70254 15.7715 2.78441 16.8973C3.86628 18.0231 5.19717 18.8794 6.67012 19.3974C8.14307 19.9154 9.71699 20.0806 11.2654 19.8797C12.8138 19.6788 14.2935 19.1175 15.5855 18.2409L21.754 24.4043C21.9253 24.5882 22.1319 24.7357 22.3615 24.838C22.591 24.9403 22.8389 24.9953 23.0901 24.9997C23.3414 25.0041 23.591 24.9579 23.8241 24.8638C24.0571 24.7697 24.2688 24.6296 24.4465 24.4518C24.6242 24.2741 24.7643 24.0624 24.8585 23.8294C24.9526 23.5964 24.9988 23.3468 24.9944 23.0955C24.9899 22.8442 24.9349 22.5964 24.8326 22.3668C24.7304 22.1372 24.5829 21.9306 24.399 21.7593L18.2355 15.5908C19.2552 14.0901 19.8465 12.3398 19.9459 10.5281C20.0453 8.71649 19.6491 6.91201 18.7997 5.30872C17.9503 3.70543 16.68 2.36399 15.1253 1.42862C13.5706 0.493251 11.7904 -0.000657623 9.97599 6.57156e-07ZM3.73766 9.98133C3.73766 8.32682 4.39491 6.74008 5.56483 5.57016C6.73474 4.40025 8.32148 3.743 9.97599 3.743C11.6305 3.743 13.2172 4.40025 14.3872 5.57016C15.5571 6.74008 16.2143 8.32682 16.2143 9.98133C16.2143 11.6358 15.5571 13.2226 14.3872 14.3925C13.2172 15.5624 11.6305 16.2197 9.97599 16.2197C8.32148 16.2197 6.73474 15.5624 5.56483 14.3925C4.39491 13.2226 3.73766 11.6358 3.73766 9.98133Z" fill="#F5F5F5"/>
</svg>
