<svg width="27" height="24" viewBox="0 0 27 24" fill="none" xmlns="http://www.w3.org/2000/svg">
<path d="M12.395 13.18C12.3085 13.2582 12.2206 13.3324 12.136 13.4039C11.5929 13.8624 11.1839 14.2076 12.1475 14.77C12.6229 15.0484 13.001 15.2774 13.3827 15.5085C13.7687 15.7423 14.1584 15.9783 14.6562 16.27C14.7827 16.3442 14.9036 16.4209 15.0215 16.4956C15.4912 16.7932 15.9122 17.06 16.4338 17.02M12.395 13.18L13.0594 13.9274C13.0586 13.9281 13.0585 13.9281 13.0594 13.9275M12.395 13.18L13.0658 13.9216C13.0636 13.9236 13.0615 13.9255 13.0594 13.9275M12.395 13.18C12.4295 13.1493 12.5776 13.0273 12.7918 12.8509C13.4622 12.4511 14.0162 12.1223 14.4546 11.8644C14.8486 11.6326 15.145 11.4604 15.3473 11.346C15.4494 11.2882 15.5209 11.2489 15.5663 11.225C15.5899 11.2126 15.5979 11.2088 15.5954 11.21L15.5953 11.21C15.594 11.2107 15.582 11.2163 15.5631 11.2238L15.5622 11.2242C15.5524 11.2281 15.4885 11.2538 15.4013 11.271L15.2929 10.7225C15.4155 10.6051 15.4913 10.5224 15.5 10.49C15.5078 10.4582 15.5068 10.4252 15.497 10.3938C15.4872 10.3624 15.4689 10.3337 15.4437 10.31C15.3838 10.2656 15.3061 10.2764 15.2343 10.2864C15.2253 10.2876 15.2163 10.2889 15.2075 10.29C15.1914 10.2932 15.1379 10.3194 15.0471 10.3687L14.5341 10.2313C14.5443 10.1929 14.5564 10.1578 14.5688 10.1264C14.7691 10.0525 14.9573 9.98324 15.1341 9.91847L17.423 9.12598M13.0594 13.9275C13.0085 13.9733 12.958 14.0173 12.9101 14.0585M13.0594 13.9275C13.0619 13.9253 13.073 13.9158 13.0979 13.8951C13.1262 13.8714 13.1642 13.8399 13.2114 13.801C13.2724 13.7506 13.3462 13.6898 13.4308 13.6201C13.4772 13.5819 13.5269 13.541 13.5794 13.4976C13.8745 13.2544 14.2548 12.9403 14.6323 12.6237C15.0082 12.3084 15.3883 11.9848 15.6806 11.724C15.8253 11.5949 15.959 11.4718 16.0629 11.3683C16.1135 11.318 16.1703 11.2592 16.2212 11.199C16.2462 11.1694 16.2814 11.126 16.3166 11.0735L16.3169 11.0732C16.3395 11.0394 16.4203 10.9193 16.4659 10.7487L16.4686 10.7387L16.4711 10.7286C16.5226 10.519 16.5155 10.3003 16.4514 10.0955C16.3877 9.89165 16.2728 9.71702 16.1291 9.58176L16.1109 9.5647C16.5214 9.41843 16.8409 9.30869 17.095 9.22674C17.2248 9.18489 17.3329 9.15193 17.423 9.12598M12.9101 14.0585C12.8273 14.0095 12.7417 13.9591 12.6528 13.9071L12.6516 13.9063C12.5471 13.8453 12.4893 13.8022 12.4617 13.7786C12.4551 13.773 12.4512 13.7693 12.4495 13.7676M12.9101 14.0585C12.8713 14.0917 12.8342 14.1231 12.7998 14.1522L12.7843 14.1653C12.7086 14.2292 12.6493 14.2792 12.5959 14.3271C12.5392 14.3777 12.5072 14.41 12.4896 14.4299C12.4861 14.4339 12.4838 14.4366 12.4825 14.4382M12.9101 14.0585C13.276 14.2748 13.5883 14.464 13.8991 14.6522L13.9072 14.6571C14.291 14.8895 14.6736 15.1212 15.1617 15.4072L15.1627 15.4077C15.3052 15.4914 15.4442 15.5795 15.5629 15.6547C15.5902 15.6721 15.6164 15.6887 15.6414 15.7045C15.7844 15.7946 15.8954 15.8621 15.9974 15.915C16.064 15.9496 16.119 15.9738 16.1652 15.9904M12.4495 13.7676C12.4488 13.7668 12.4484 13.7664 12.4484 13.7664C12.4484 13.7664 12.4487 13.7668 12.4495 13.7676ZM12.4495 13.7676C12.4536 13.772 12.469 13.7895 12.4876 13.8212C12.5188 13.874 12.5522 13.9551 12.5634 14.0575C12.5634 14.0581 12.5635 14.0588 12.5636 14.0595C12.5656 14.0788 12.5669 14.0988 12.5672 14.1196C12.5691 14.2474 12.5338 14.3431 12.5089 14.3932C12.4964 14.4184 12.4859 14.4335 12.4825 14.4382M12.4825 14.4382C12.4816 14.4393 12.4813 14.4398 12.4813 14.4397C12.4814 14.4396 12.4818 14.4391 12.4825 14.4382ZM16.1652 15.9904C16.13 16.0937 16.1019 16.1307 16.1021 16.1307C16.1021 16.1308 16.1022 16.1305 16.1026 16.1301C16.1091 16.1224 16.1336 16.0966 16.1804 16.0714C16.2276 16.046 16.2803 16.0305 16.3317 16.0252L16.4338 17.02M16.1652 15.9904C16.2546 16.0225 16.3113 16.0264 16.3573 16.0229L16.4338 17.02M16.1652 15.9904C16.1826 15.9393 16.2017 15.8719 16.22 15.7847M16.4338 17.02C16.7262 16.99 17.0413 16.74 17.1988 15.99M17.1988 15.99L16.22 15.7847M17.1988 15.99L16.2201 15.7845C16.2201 15.7846 16.2201 15.7846 16.22 15.7847M17.1988 15.99C17.57 14.22 18.3012 10.38 18.47 8.8L17.423 9.12598M16.22 15.7847C16.5607 14.1604 17.1936 10.8437 17.423 9.12598M8.65373 12.3789C9.77092 11.9474 10.7349 11.5759 11.5469 11.2647C11.0677 11.5507 10.5341 11.8699 9.94607 12.2222L9.94551 12.2225C9.57241 12.4464 9.36156 12.4829 9.27277 12.4804L9.26968 12.4803C9.14339 12.4772 8.9197 12.4386 8.65373 12.3789ZM13.25 1C6.6017 1 1 5.82024 1 12C1 18.1798 6.6017 23 13.25 23C19.8983 23 25.5 18.1798 25.5 12C25.5 5.82024 19.8983 1 13.25 1Z" fill="black" stroke="currentColor" stroke-width="2"/>
</svg>
